<?xml version="1.0" encoding="UTF-8" standalone="no"?>
<svg 
    role="img" 
    xmlns="http://www.w3.org/2000/svg" 
    width="1000mm"
    height="1000mm"
    viewBox="0 0 1000 1000"
    style="max-width:1.6em; height: auto;">
    
    <path 
        id="path" 
        style="opacity:1;vector-effect:none;fill:#000000;fill-opacity:1;"
        d=" M 42 112C 42 112 42 888 42 888C 42 888 98 888 98 888C 98 888 98 907 98 907C 98 907 20 907 20 907C 20 907 20 93 20 93C 20 93 98 93 98 93C 98 93 98 112 98 112C 98 112 42 112 42 112M 353 358C 353 358 353 397 353 397C 353 397 355 397 355 397C 365 382 378 371 392 362C 407 354 424 350 443 350C 462 350 479 354 494 361C 509 368 520 380 528 398C 537 385 549 374 563 364C 578 355 596 350 616 350C 631 350 645 352 659 355C 672 359 683 365 692 373C 702 382 709 392 714 406C 720 419 722 435 722 454C 722 454 722 648 722 648C 722 648 642 648 642 648C 642 648 642 484 642 484C 642 484 641 456 641 456C 640 447 638 440 635 434C 632 427 627 422 620 418C 614 415 605 413 593 413C 582 413 573 415 566 419C 559 423 554 429 550 436C 546 443 543 451 542 460C 541 468 540 477 540 486C 540 486 540 648 540 648C 540 648 460 648 460 648C 460 648 460 485 460 485C 460 485 460 460 460 460C 459 451 458 444 455 436C 452 429 447 424 441 419C 434 415 425 413 412 413C 408 413 403 414 397 415C 391 417 384 421 379 425C 373 430 368 436 364 445C 360 454 358 466 358 480C 358 480 358 648 358 648C 358 648 278 648 278 648C 278 648 278 358 278 358C 278 358 353 358 353 358M 958 888C 958 888 958 112 958 112C 958 112 902 112 902 112C 902 112 902 93 902 93C 902 93 980 93 980 93C 980 93 980 907 980 907C 980 907 902 907 902 907C 902 907 902 888 902 888C 902 888 958 888 958 888"
        transform="">
    </path>    
</svg>